<mxfile host="app.diagrams.net" modified="2023-12-11T03:00:05.754Z" agent="Mozilla/5.0 (Windows NT 10.0; Win64; x64) AppleWebKit/537.36 (KHTML, like Gecko) Chrome/119.0.0.0 Safari/537.36" etag="WuPIFQKCX4qjDFKBVklG" version="22.1.7" type="github">
  <diagram name="페이지-1" id="nNhSP02wGN5C-YDmaM7U">
    <mxGraphModel dx="1450" dy="984" grid="0" gridSize="10" guides="1" tooltips="1" connect="1" arrows="1" fold="1" page="0" pageScale="1" pageWidth="827" pageHeight="1169" math="0" shadow="0">
      <root>
        <mxCell id="0" />
        <mxCell id="1" parent="0" />
        <mxCell id="7UoMRcbTY6B1r3X_XAHU-1" value="A" style="ellipse;whiteSpace=wrap;html=1;aspect=fixed;fontSize=16;" vertex="1" parent="1">
          <mxGeometry x="110" y="-133" width="80" height="80" as="geometry" />
        </mxCell>
        <mxCell id="7UoMRcbTY6B1r3X_XAHU-2" value="D" style="ellipse;whiteSpace=wrap;html=1;aspect=fixed;fontSize=16;" vertex="1" parent="1">
          <mxGeometry x="205" y="31" width="80" height="80" as="geometry" />
        </mxCell>
        <mxCell id="7UoMRcbTY6B1r3X_XAHU-3" value="B" style="ellipse;whiteSpace=wrap;html=1;aspect=fixed;fontSize=16;" vertex="1" parent="1">
          <mxGeometry x="20" y="31" width="80" height="80" as="geometry" />
        </mxCell>
        <mxCell id="7UoMRcbTY6B1r3X_XAHU-4" value="C" style="ellipse;whiteSpace=wrap;html=1;aspect=fixed;fontSize=16;" vertex="1" parent="1">
          <mxGeometry x="110" y="211" width="80" height="80" as="geometry" />
        </mxCell>
        <mxCell id="7UoMRcbTY6B1r3X_XAHU-10" value="5" style="endArrow=classic;html=1;rounded=0;fontSize=12;startSize=8;endSize=8;curved=1;exitX=0;exitY=0.5;exitDx=0;exitDy=0;entryX=0.5;entryY=0;entryDx=0;entryDy=0;" edge="1" parent="1" source="7UoMRcbTY6B1r3X_XAHU-1" target="7UoMRcbTY6B1r3X_XAHU-3">
          <mxGeometry width="50" height="50" relative="1" as="geometry">
            <mxPoint x="231" y="77" as="sourcePoint" />
            <mxPoint x="281" y="27" as="targetPoint" />
          </mxGeometry>
        </mxCell>
        <mxCell id="7UoMRcbTY6B1r3X_XAHU-11" value="9" style="endArrow=classic;html=1;rounded=0;fontSize=12;startSize=8;endSize=8;curved=1;exitX=1;exitY=0.5;exitDx=0;exitDy=0;entryX=0.5;entryY=0;entryDx=0;entryDy=0;" edge="1" parent="1" source="7UoMRcbTY6B1r3X_XAHU-1" target="7UoMRcbTY6B1r3X_XAHU-2">
          <mxGeometry width="50" height="50" relative="1" as="geometry">
            <mxPoint x="231" y="77" as="sourcePoint" />
            <mxPoint x="281" y="27" as="targetPoint" />
          </mxGeometry>
        </mxCell>
        <mxCell id="7UoMRcbTY6B1r3X_XAHU-12" value="8" style="endArrow=classic;html=1;rounded=0;fontSize=12;startSize=8;endSize=8;curved=1;exitX=1;exitY=0.5;exitDx=0;exitDy=0;" edge="1" parent="1" source="7UoMRcbTY6B1r3X_XAHU-3" target="7UoMRcbTY6B1r3X_XAHU-2">
          <mxGeometry width="50" height="50" relative="1" as="geometry">
            <mxPoint x="231" y="77" as="sourcePoint" />
            <mxPoint x="281" y="27" as="targetPoint" />
          </mxGeometry>
        </mxCell>
        <mxCell id="7UoMRcbTY6B1r3X_XAHU-13" value="2" style="endArrow=classic;html=1;rounded=0;fontSize=12;startSize=8;endSize=8;curved=1;exitX=0.5;exitY=1;exitDx=0;exitDy=0;entryX=0;entryY=0;entryDx=0;entryDy=0;" edge="1" parent="1" source="7UoMRcbTY6B1r3X_XAHU-3" target="7UoMRcbTY6B1r3X_XAHU-4">
          <mxGeometry width="50" height="50" relative="1" as="geometry">
            <mxPoint x="231" y="77" as="sourcePoint" />
            <mxPoint x="281" y="27" as="targetPoint" />
          </mxGeometry>
        </mxCell>
        <mxCell id="7UoMRcbTY6B1r3X_XAHU-14" value="7" style="endArrow=classic;html=1;rounded=0;fontSize=12;startSize=8;endSize=8;curved=1;exitX=1;exitY=0;exitDx=0;exitDy=0;entryX=0.5;entryY=1;entryDx=0;entryDy=0;" edge="1" parent="1" source="7UoMRcbTY6B1r3X_XAHU-4" target="7UoMRcbTY6B1r3X_XAHU-2">
          <mxGeometry width="50" height="50" relative="1" as="geometry">
            <mxPoint x="231" y="77" as="sourcePoint" />
            <mxPoint x="281" y="27" as="targetPoint" />
          </mxGeometry>
        </mxCell>
        <mxCell id="7UoMRcbTY6B1r3X_XAHU-15" value="A" style="ellipse;whiteSpace=wrap;html=1;aspect=fixed;fontSize=16;" vertex="1" parent="1">
          <mxGeometry x="986" y="-51" width="80" height="80" as="geometry" />
        </mxCell>
        <mxCell id="7UoMRcbTY6B1r3X_XAHU-16" value="D" style="ellipse;whiteSpace=wrap;html=1;aspect=fixed;fontSize=16;" vertex="1" parent="1">
          <mxGeometry x="1096" y="63" width="80" height="80" as="geometry" />
        </mxCell>
        <mxCell id="7UoMRcbTY6B1r3X_XAHU-17" value="B" style="ellipse;whiteSpace=wrap;html=1;aspect=fixed;fontSize=16;" vertex="1" parent="1">
          <mxGeometry x="876" y="63" width="80" height="80" as="geometry" />
        </mxCell>
        <mxCell id="7UoMRcbTY6B1r3X_XAHU-18" value="C" style="ellipse;whiteSpace=wrap;html=1;aspect=fixed;fontSize=16;" vertex="1" parent="1">
          <mxGeometry x="986" y="176" width="80" height="80" as="geometry" />
        </mxCell>
        <mxCell id="7UoMRcbTY6B1r3X_XAHU-24" style="edgeStyle=none;curved=1;rounded=0;orthogonalLoop=1;jettySize=auto;html=1;exitX=0;exitY=1;exitDx=0;exitDy=0;fontSize=12;startSize=8;endSize=8;" edge="1" parent="1" source="7UoMRcbTY6B1r3X_XAHU-15" target="7UoMRcbTY6B1r3X_XAHU-15">
          <mxGeometry relative="1" as="geometry" />
        </mxCell>
        <mxCell id="7UoMRcbTY6B1r3X_XAHU-25" value="" style="endArrow=none;html=1;rounded=0;fontSize=12;startSize=8;endSize=8;curved=1;entryX=0;entryY=1;entryDx=0;entryDy=0;" edge="1" parent="1" source="7UoMRcbTY6B1r3X_XAHU-17" target="7UoMRcbTY6B1r3X_XAHU-15">
          <mxGeometry width="50" height="50" relative="1" as="geometry">
            <mxPoint x="974" y="154" as="sourcePoint" />
            <mxPoint x="1024" y="104" as="targetPoint" />
          </mxGeometry>
        </mxCell>
        <mxCell id="7UoMRcbTY6B1r3X_XAHU-26" value="" style="endArrow=none;html=1;rounded=0;fontSize=12;startSize=8;endSize=8;curved=1;entryX=1;entryY=1;entryDx=0;entryDy=0;" edge="1" parent="1" source="7UoMRcbTY6B1r3X_XAHU-16" target="7UoMRcbTY6B1r3X_XAHU-15">
          <mxGeometry width="50" height="50" relative="1" as="geometry">
            <mxPoint x="974" y="154" as="sourcePoint" />
            <mxPoint x="1024" y="104" as="targetPoint" />
          </mxGeometry>
        </mxCell>
        <mxCell id="7UoMRcbTY6B1r3X_XAHU-27" value="" style="endArrow=none;html=1;rounded=0;fontSize=12;startSize=8;endSize=8;curved=1;entryX=1;entryY=1;entryDx=0;entryDy=0;exitX=0;exitY=0;exitDx=0;exitDy=0;" edge="1" parent="1" source="7UoMRcbTY6B1r3X_XAHU-18" target="7UoMRcbTY6B1r3X_XAHU-17">
          <mxGeometry width="50" height="50" relative="1" as="geometry">
            <mxPoint x="974" y="154" as="sourcePoint" />
            <mxPoint x="1024" y="104" as="targetPoint" />
          </mxGeometry>
        </mxCell>
        <mxCell id="7UoMRcbTY6B1r3X_XAHU-28" value="" style="endArrow=none;html=1;rounded=0;fontSize=12;startSize=8;endSize=8;curved=1;entryX=0;entryY=1;entryDx=0;entryDy=0;exitX=1;exitY=0;exitDx=0;exitDy=0;" edge="1" parent="1" source="7UoMRcbTY6B1r3X_XAHU-18" target="7UoMRcbTY6B1r3X_XAHU-16">
          <mxGeometry width="50" height="50" relative="1" as="geometry">
            <mxPoint x="974" y="154" as="sourcePoint" />
            <mxPoint x="1024" y="104" as="targetPoint" />
          </mxGeometry>
        </mxCell>
        <mxCell id="7UoMRcbTY6B1r3X_XAHU-29" value="" style="endArrow=none;html=1;rounded=0;fontSize=12;startSize=8;endSize=8;curved=1;exitX=1;exitY=0.5;exitDx=0;exitDy=0;" edge="1" parent="1" source="7UoMRcbTY6B1r3X_XAHU-17">
          <mxGeometry width="50" height="50" relative="1" as="geometry">
            <mxPoint x="1079" y="154" as="sourcePoint" />
            <mxPoint x="1097" y="104" as="targetPoint" />
          </mxGeometry>
        </mxCell>
        <mxCell id="7UoMRcbTY6B1r3X_XAHU-30" value="" style="endArrow=none;html=1;rounded=0;fontSize=12;startSize=8;endSize=8;curved=1;entryX=0.5;entryY=1;entryDx=0;entryDy=0;exitX=0.5;exitY=0;exitDx=0;exitDy=0;" edge="1" parent="1" source="7UoMRcbTY6B1r3X_XAHU-18" target="7UoMRcbTY6B1r3X_XAHU-15">
          <mxGeometry width="50" height="50" relative="1" as="geometry">
            <mxPoint x="1079" y="154" as="sourcePoint" />
            <mxPoint x="1129" y="104" as="targetPoint" />
          </mxGeometry>
        </mxCell>
        <mxCell id="7UoMRcbTY6B1r3X_XAHU-53" value="A" style="ellipse;whiteSpace=wrap;html=1;aspect=fixed;fontSize=16;" vertex="1" parent="1">
          <mxGeometry x="1311" y="-50.5" width="80" height="80" as="geometry" />
        </mxCell>
        <mxCell id="7UoMRcbTY6B1r3X_XAHU-54" value="D" style="ellipse;whiteSpace=wrap;html=1;aspect=fixed;fontSize=16;" vertex="1" parent="1">
          <mxGeometry x="1421" y="63.5" width="80" height="80" as="geometry" />
        </mxCell>
        <mxCell id="7UoMRcbTY6B1r3X_XAHU-55" value="B" style="ellipse;whiteSpace=wrap;html=1;aspect=fixed;fontSize=16;" vertex="1" parent="1">
          <mxGeometry x="1201" y="63.5" width="80" height="80" as="geometry" />
        </mxCell>
        <mxCell id="7UoMRcbTY6B1r3X_XAHU-56" value="C" style="ellipse;whiteSpace=wrap;html=1;aspect=fixed;fontSize=16;" vertex="1" parent="1">
          <mxGeometry x="1311" y="176.5" width="80" height="80" as="geometry" />
        </mxCell>
        <mxCell id="7UoMRcbTY6B1r3X_XAHU-57" style="edgeStyle=none;curved=1;rounded=0;orthogonalLoop=1;jettySize=auto;html=1;exitX=0;exitY=1;exitDx=0;exitDy=0;fontSize=12;startSize=8;endSize=8;" edge="1" parent="1" source="7UoMRcbTY6B1r3X_XAHU-53" target="7UoMRcbTY6B1r3X_XAHU-53">
          <mxGeometry relative="1" as="geometry" />
        </mxCell>
        <mxCell id="7UoMRcbTY6B1r3X_XAHU-64" value="" style="endArrow=classic;startArrow=classic;html=1;rounded=0;fontSize=12;startSize=8;endSize=8;curved=1;entryX=0;entryY=1;entryDx=0;entryDy=0;exitX=1;exitY=0;exitDx=0;exitDy=0;" edge="1" parent="1" source="7UoMRcbTY6B1r3X_XAHU-55" target="7UoMRcbTY6B1r3X_XAHU-53">
          <mxGeometry width="50" height="50" relative="1" as="geometry">
            <mxPoint x="1302" y="154" as="sourcePoint" />
            <mxPoint x="1352" y="104" as="targetPoint" />
          </mxGeometry>
        </mxCell>
        <mxCell id="7UoMRcbTY6B1r3X_XAHU-65" value="" style="endArrow=classic;startArrow=classic;html=1;rounded=0;fontSize=12;startSize=8;endSize=8;curved=1;entryX=1;entryY=1;entryDx=0;entryDy=0;exitX=0;exitY=0;exitDx=0;exitDy=0;" edge="1" parent="1" source="7UoMRcbTY6B1r3X_XAHU-54" target="7UoMRcbTY6B1r3X_XAHU-53">
          <mxGeometry width="50" height="50" relative="1" as="geometry">
            <mxPoint x="1302" y="154" as="sourcePoint" />
            <mxPoint x="1352" y="104" as="targetPoint" />
          </mxGeometry>
        </mxCell>
        <mxCell id="7UoMRcbTY6B1r3X_XAHU-66" value="" style="endArrow=classic;startArrow=classic;html=1;rounded=0;fontSize=12;startSize=8;endSize=8;curved=1;entryX=1;entryY=1;entryDx=0;entryDy=0;" edge="1" parent="1" source="7UoMRcbTY6B1r3X_XAHU-56" target="7UoMRcbTY6B1r3X_XAHU-55">
          <mxGeometry width="50" height="50" relative="1" as="geometry">
            <mxPoint x="1302" y="154" as="sourcePoint" />
            <mxPoint x="1352" y="104" as="targetPoint" />
          </mxGeometry>
        </mxCell>
        <mxCell id="7UoMRcbTY6B1r3X_XAHU-67" value="" style="endArrow=classic;startArrow=classic;html=1;rounded=0;fontSize=12;startSize=8;endSize=8;curved=1;entryX=0;entryY=1;entryDx=0;entryDy=0;" edge="1" parent="1" source="7UoMRcbTY6B1r3X_XAHU-56" target="7UoMRcbTY6B1r3X_XAHU-54">
          <mxGeometry width="50" height="50" relative="1" as="geometry">
            <mxPoint x="1302" y="154" as="sourcePoint" />
            <mxPoint x="1352" y="104" as="targetPoint" />
          </mxGeometry>
        </mxCell>
        <mxCell id="7UoMRcbTY6B1r3X_XAHU-68" value="" style="endArrow=classic;startArrow=classic;html=1;rounded=0;fontSize=12;startSize=8;endSize=8;curved=1;entryX=0.5;entryY=1;entryDx=0;entryDy=0;exitX=0.5;exitY=0;exitDx=0;exitDy=0;" edge="1" parent="1" source="7UoMRcbTY6B1r3X_XAHU-56" target="7UoMRcbTY6B1r3X_XAHU-53">
          <mxGeometry width="50" height="50" relative="1" as="geometry">
            <mxPoint x="1302" y="154" as="sourcePoint" />
            <mxPoint x="1352" y="104" as="targetPoint" />
          </mxGeometry>
        </mxCell>
        <mxCell id="7UoMRcbTY6B1r3X_XAHU-69" value="" style="endArrow=classic;startArrow=classic;html=1;rounded=0;fontSize=12;startSize=8;endSize=8;curved=1;entryX=0;entryY=0.5;entryDx=0;entryDy=0;exitX=1;exitY=0.5;exitDx=0;exitDy=0;" edge="1" parent="1" source="7UoMRcbTY6B1r3X_XAHU-55" target="7UoMRcbTY6B1r3X_XAHU-54">
          <mxGeometry width="50" height="50" relative="1" as="geometry">
            <mxPoint x="1292" y="104" as="sourcePoint" />
            <mxPoint x="1352" y="104" as="targetPoint" />
          </mxGeometry>
        </mxCell>
        <mxCell id="7UoMRcbTY6B1r3X_XAHU-70" value="A" style="ellipse;whiteSpace=wrap;html=1;aspect=fixed;fontSize=16;" vertex="1" parent="1">
          <mxGeometry x="-210" y="-133" width="80" height="80" as="geometry" />
        </mxCell>
        <mxCell id="7UoMRcbTY6B1r3X_XAHU-71" value="D" style="ellipse;whiteSpace=wrap;html=1;aspect=fixed;fontSize=16;" vertex="1" parent="1">
          <mxGeometry x="-115" y="31" width="80" height="80" as="geometry" />
        </mxCell>
        <mxCell id="7UoMRcbTY6B1r3X_XAHU-72" value="B" style="ellipse;whiteSpace=wrap;html=1;aspect=fixed;fontSize=16;" vertex="1" parent="1">
          <mxGeometry x="-300" y="31" width="80" height="80" as="geometry" />
        </mxCell>
        <mxCell id="7UoMRcbTY6B1r3X_XAHU-73" value="C" style="ellipse;whiteSpace=wrap;html=1;aspect=fixed;fontSize=16;" vertex="1" parent="1">
          <mxGeometry x="-210" y="211" width="80" height="80" as="geometry" />
        </mxCell>
        <mxCell id="7UoMRcbTY6B1r3X_XAHU-74" value="1" style="endArrow=none;html=1;rounded=0;fontSize=12;startSize=8;endSize=8;curved=1;entryX=0;entryY=0.5;entryDx=0;entryDy=0;" edge="1" parent="1" target="7UoMRcbTY6B1r3X_XAHU-70">
          <mxGeometry width="50" height="50" relative="1" as="geometry">
            <mxPoint x="-255" y="30" as="sourcePoint" />
            <mxPoint x="-126" y="151" as="targetPoint" />
          </mxGeometry>
        </mxCell>
        <mxCell id="7UoMRcbTY6B1r3X_XAHU-76" value="2" style="endArrow=none;html=1;rounded=0;fontSize=12;startSize=8;endSize=8;curved=1;exitX=1;exitY=0.5;exitDx=0;exitDy=0;entryX=0;entryY=0.5;entryDx=0;entryDy=0;" edge="1" parent="1" source="7UoMRcbTY6B1r3X_XAHU-72" target="7UoMRcbTY6B1r3X_XAHU-71">
          <mxGeometry width="50" height="50" relative="1" as="geometry">
            <mxPoint x="-176" y="201" as="sourcePoint" />
            <mxPoint x="-126" y="151" as="targetPoint" />
          </mxGeometry>
        </mxCell>
        <mxCell id="7UoMRcbTY6B1r3X_XAHU-78" value="5" style="endArrow=none;html=1;rounded=0;fontSize=12;startSize=8;endSize=8;curved=1;entryX=0.5;entryY=1;entryDx=0;entryDy=0;exitX=1;exitY=0;exitDx=0;exitDy=0;" edge="1" parent="1" source="7UoMRcbTY6B1r3X_XAHU-73" target="7UoMRcbTY6B1r3X_XAHU-71">
          <mxGeometry width="50" height="50" relative="1" as="geometry">
            <mxPoint x="-176" y="108" as="sourcePoint" />
            <mxPoint x="-126" y="58" as="targetPoint" />
          </mxGeometry>
        </mxCell>
        <mxCell id="7UoMRcbTY6B1r3X_XAHU-80" value="3" style="endArrow=none;html=1;rounded=0;fontSize=12;startSize=8;endSize=8;curved=1;entryX=1;entryY=0.5;entryDx=0;entryDy=0;exitX=0.5;exitY=0;exitDx=0;exitDy=0;" edge="1" parent="1" source="7UoMRcbTY6B1r3X_XAHU-71" target="7UoMRcbTY6B1r3X_XAHU-70">
          <mxGeometry width="50" height="50" relative="1" as="geometry">
            <mxPoint x="-92" y="89" as="sourcePoint" />
            <mxPoint x="-42" y="39" as="targetPoint" />
          </mxGeometry>
        </mxCell>
        <mxCell id="7UoMRcbTY6B1r3X_XAHU-81" value="8" style="endArrow=none;html=1;rounded=0;fontSize=12;startSize=8;endSize=8;curved=1;entryX=0.5;entryY=1;entryDx=0;entryDy=0;exitX=0;exitY=0;exitDx=0;exitDy=0;" edge="1" parent="1" source="7UoMRcbTY6B1r3X_XAHU-73" target="7UoMRcbTY6B1r3X_XAHU-72">
          <mxGeometry width="50" height="50" relative="1" as="geometry">
            <mxPoint x="-92" y="89" as="sourcePoint" />
            <mxPoint x="-42" y="39" as="targetPoint" />
          </mxGeometry>
        </mxCell>
        <mxCell id="7UoMRcbTY6B1r3X_XAHU-88" style="edgeStyle=none;curved=1;rounded=0;orthogonalLoop=1;jettySize=auto;html=1;exitX=0;exitY=1;exitDx=0;exitDy=0;entryX=1;entryY=0;entryDx=0;entryDy=0;fontSize=12;startSize=8;endSize=8;" edge="1" parent="1" source="7UoMRcbTY6B1r3X_XAHU-82" target="7UoMRcbTY6B1r3X_XAHU-84">
          <mxGeometry relative="1" as="geometry" />
        </mxCell>
        <mxCell id="7UoMRcbTY6B1r3X_XAHU-82" value="A" style="ellipse;whiteSpace=wrap;html=1;aspect=fixed;fontSize=16;" vertex="1" parent="1">
          <mxGeometry x="1827" y="-111" width="80" height="80" as="geometry" />
        </mxCell>
        <mxCell id="7UoMRcbTY6B1r3X_XAHU-91" style="edgeStyle=none;curved=1;rounded=0;orthogonalLoop=1;jettySize=auto;html=1;exitX=1;exitY=0;exitDx=0;exitDy=0;entryX=0.5;entryY=1;entryDx=0;entryDy=0;fontSize=12;startSize=8;endSize=8;" edge="1" parent="1" source="7UoMRcbTY6B1r3X_XAHU-83" target="7UoMRcbTY6B1r3X_XAHU-87">
          <mxGeometry relative="1" as="geometry" />
        </mxCell>
        <mxCell id="7UoMRcbTY6B1r3X_XAHU-83" value="D" style="ellipse;whiteSpace=wrap;html=1;aspect=fixed;fontSize=16;" vertex="1" parent="1">
          <mxGeometry x="1991" y="107" width="80" height="80" as="geometry" />
        </mxCell>
        <mxCell id="7UoMRcbTY6B1r3X_XAHU-89" style="edgeStyle=none;curved=1;rounded=0;orthogonalLoop=1;jettySize=auto;html=1;exitX=0.5;exitY=1;exitDx=0;exitDy=0;entryX=0;entryY=0;entryDx=0;entryDy=0;fontSize=12;startSize=8;endSize=8;" edge="1" parent="1" source="7UoMRcbTY6B1r3X_XAHU-84" target="7UoMRcbTY6B1r3X_XAHU-85">
          <mxGeometry relative="1" as="geometry" />
        </mxCell>
        <mxCell id="7UoMRcbTY6B1r3X_XAHU-84" value="B" style="ellipse;whiteSpace=wrap;html=1;aspect=fixed;fontSize=16;" vertex="1" parent="1">
          <mxGeometry x="1717" y="3" width="80" height="80" as="geometry" />
        </mxCell>
        <mxCell id="7UoMRcbTY6B1r3X_XAHU-90" style="edgeStyle=none;curved=1;rounded=0;orthogonalLoop=1;jettySize=auto;html=1;exitX=1;exitY=0.5;exitDx=0;exitDy=0;entryX=0;entryY=1;entryDx=0;entryDy=0;fontSize=12;startSize=8;endSize=8;" edge="1" parent="1" source="7UoMRcbTY6B1r3X_XAHU-85" target="7UoMRcbTY6B1r3X_XAHU-83">
          <mxGeometry relative="1" as="geometry" />
        </mxCell>
        <mxCell id="7UoMRcbTY6B1r3X_XAHU-85" value="C" style="ellipse;whiteSpace=wrap;html=1;aspect=fixed;fontSize=16;" vertex="1" parent="1">
          <mxGeometry x="1806" y="172" width="80" height="80" as="geometry" />
        </mxCell>
        <mxCell id="7UoMRcbTY6B1r3X_XAHU-87" value="E" style="ellipse;whiteSpace=wrap;html=1;aspect=fixed;fontSize=16;" vertex="1" parent="1">
          <mxGeometry x="1995" y="-16.5" width="80" height="80" as="geometry" />
        </mxCell>
        <mxCell id="7UoMRcbTY6B1r3X_XAHU-93" value="A" style="ellipse;whiteSpace=wrap;html=1;aspect=fixed;fontSize=16;" vertex="1" parent="1">
          <mxGeometry x="2464" y="-125" width="80" height="80" as="geometry" />
        </mxCell>
        <mxCell id="7UoMRcbTY6B1r3X_XAHU-95" value="D" style="ellipse;whiteSpace=wrap;html=1;aspect=fixed;fontSize=16;" vertex="1" parent="1">
          <mxGeometry x="2584" y="172" width="80" height="80" as="geometry" />
        </mxCell>
        <mxCell id="7UoMRcbTY6B1r3X_XAHU-97" value="B" style="ellipse;whiteSpace=wrap;html=1;aspect=fixed;fontSize=16;" vertex="1" parent="1">
          <mxGeometry x="2336" y="3" width="80" height="80" as="geometry" />
        </mxCell>
        <mxCell id="7UoMRcbTY6B1r3X_XAHU-99" value="C" style="ellipse;whiteSpace=wrap;html=1;aspect=fixed;fontSize=16;" vertex="1" parent="1">
          <mxGeometry x="2336" y="172" width="80" height="80" as="geometry" />
        </mxCell>
        <mxCell id="7UoMRcbTY6B1r3X_XAHU-100" value="E" style="ellipse;whiteSpace=wrap;html=1;aspect=fixed;fontSize=16;" vertex="1" parent="1">
          <mxGeometry x="2584" y="3" width="80" height="80" as="geometry" />
        </mxCell>
        <mxCell id="7UoMRcbTY6B1r3X_XAHU-101" value="" style="endArrow=none;html=1;rounded=0;fontSize=12;startSize=8;endSize=8;curved=1;entryX=1;entryY=1;entryDx=0;entryDy=0;" edge="1" parent="1" source="7UoMRcbTY6B1r3X_XAHU-100" target="7UoMRcbTY6B1r3X_XAHU-93">
          <mxGeometry width="50" height="50" relative="1" as="geometry">
            <mxPoint x="2444" y="89" as="sourcePoint" />
            <mxPoint x="2494" y="39" as="targetPoint" />
          </mxGeometry>
        </mxCell>
        <mxCell id="7UoMRcbTY6B1r3X_XAHU-102" value="" style="endArrow=none;html=1;rounded=0;fontSize=12;startSize=8;endSize=8;curved=1;entryX=0;entryY=1;entryDx=0;entryDy=0;" edge="1" parent="1" source="7UoMRcbTY6B1r3X_XAHU-97" target="7UoMRcbTY6B1r3X_XAHU-93">
          <mxGeometry width="50" height="50" relative="1" as="geometry">
            <mxPoint x="2444" y="89" as="sourcePoint" />
            <mxPoint x="2494" y="39" as="targetPoint" />
          </mxGeometry>
        </mxCell>
        <mxCell id="7UoMRcbTY6B1r3X_XAHU-105" value="" style="endArrow=none;html=1;rounded=0;fontSize=12;startSize=8;endSize=8;curved=1;exitX=1;exitY=0.5;exitDx=0;exitDy=0;entryX=0;entryY=0.5;entryDx=0;entryDy=0;" edge="1" parent="1" source="7UoMRcbTY6B1r3X_XAHU-99" target="7UoMRcbTY6B1r3X_XAHU-95">
          <mxGeometry width="50" height="50" relative="1" as="geometry">
            <mxPoint x="2444" y="89" as="sourcePoint" />
            <mxPoint x="2494" y="39" as="targetPoint" />
          </mxGeometry>
        </mxCell>
      </root>
    </mxGraphModel>
  </diagram>
</mxfile>
